# xmcd CD database file
#
# Track frame offsets:
#	150
#	11497
#	19276
#	27848
#	39092
#	50219
#	61236
#	73774
#	85050
#	93464
#	105080
#	117098
#	128340
#	139141
#	153622
#
# Disc length: 2236 seconds
#
# Revision: 0
# Processed by: cddbd v1.5.1PL2 Copyright (c) Steve Scherf et al.
# Submitted via: CDex 1.40Release
#
DISCID=b808ba0f
DTITLE=Various Artist - Classic Country/Sing Me A Hank Williams Song (Disk 1)
DYEAR=2004
DGENRE=Country
TTITLE0=Settin' The Woods On Fire/Porter Wagoner
TTITLE1=Hey Good Lookin'/Johnny Cash
TTITLE2=Baby, We're Really In Love/Don Gibson
TTITLE3=Honky Tonkin'/Mel Tillis
TTITLE4=Take Thes Chains From My Heart/Ray Price
TTITLE5=My Bucket's Got A Hole In It/Lefty Frizzell
TTITLE6=I'm So Lonesome I Could Cry/Marty Robbins
TTITLE7=Half As Much/Patsy Cline
TTITLE8=Jambalaya (On The Bayou)/Conway Twitty and His Lonely Blue Boys
TTITLE9=May You Never Be Alone/Ferlin Husky
TTITLE10=Long gone Lonesome Blues/The Wilburn Brothers
TTITLE11=You Win Again/George Jones
TTITLE12=Lovesick Blues/Sonny James
TTITLE13=Cold, Cold Heart/Willie Nelson
TTITLE14=Kaw-Liga/Charlie Pride
EXTD=YEAR: 2004 ID3G: 2
EXTT0=
EXTT1=
EXTT2=
EXTT3=
EXTT4=
EXTT5=
EXTT6=
EXTT7=
EXTT8=
EXTT9=
EXTT10=
EXTT11=
EXTT12=
EXTT13=
EXTT14=
PLAYORDER=
